<?xml version="1.0" standalone="no"?>
<!DOCTYPE svg PUBLIC "-//W3C//DTD SVG 20010904//EN"
 "http://www.w3.org/TR/2001/REC-SVG-20010904/DTD/svg10.dtd">
<svg version="1.0" xmlns="http://www.w3.org/2000/svg"
 width="512.000000pt" height="512.000000pt" viewBox="0 0 512.000000 512.000000"
 preserveAspectRatio="xMidYMid meet">
<metadata>
Created by potrace 1.14, written by Peter Selinger 2001-2017
</metadata>
<g transform="translate(0.000000,512.000000) scale(0.100000,-0.100000)"
fill="#000000" stroke="none">
<path d="M686 5078 c-4 -24 -10 -59 -12 -78 -2 -19 -9 -60 -14 -90 -5 -30 -12
-75 -15 -100 -3 -25 -10 -70 -15 -100 -5 -30 -12 -73 -15 -95 -4 -22 -13 -80
-22 -130 -8 -49 -16 -99 -18 -110 -9 -68 -17 -119 -30 -190 -8 -44 -17 -96
-20 -115 -19 -115 -58 -316 -80 -412 -23 -101 -30 -118 -80 -187 -30 -42 -69
-92 -86 -111 -47 -54 -71 -84 -104 -125 -16 -21 -35 -43 -40 -49 -6 -6 -38
-46 -73 -88 l-62 -76 0 -1511 0 -1511 2560 0 2560 0 0 1923 0 1924 -63 84
c-77 101 -148 167 -259 242 -134 90 -313 184 -390 207 -45 13 -46 15 -52 63
-4 27 -6 95 -5 150 2 101 8 176 34 392 2 22 7 61 10 88 l6 47 -391 0 c-305 0
-390 -3 -391 -12 0 -7 -2 -22 -4 -33 -2 -11 -7 -47 -10 -80 -4 -33 -8 -71 -10
-85 -2 -14 -6 -54 -10 -90 -3 -36 -8 -78 -10 -95 -2 -16 -6 -73 -10 -125 -4
-52 -10 -98 -14 -102 -8 -8 -95 -17 -226 -23 -100 -4 -170 -8 -395 -20 -81 -5
-184 -13 -240 -20 -19 -2 -60 -7 -90 -10 -62 -6 -73 -8 -224 -36 -87 -16 -227
-48 -406 -93 -203 -51 -483 -153 -611 -223 -23 -13 -36 156 -19 248 8 40 11
61 25 169 14 102 24 280 27 480 l2 145 -351 3 -350 2 -7 -42z"/>
</g>
</svg>
